# xmcd CD database file
#
# Track frame offsets:
#	150
#	13911
#	30799
#	45736
#	62909
#	78590
#	92420
#	107211
#	123197
#	143103
#	156728
#	170095
#	185769
#	201585
#	219088
#	236679
#
# Disc length: 3361 seconds
#
# Revision: 0
# Processed by: cddbd v1.5PL3 Copyright (c) Steve Scherf et al.
# Submitted via: CDex 1.50
#
DISCID=e40d1f10
DTITLE=Various Artist - Country Music Made In Germany 2
DYEAR=2003
DGENRE=Country
TTITLE0=Sundance - Tony's Rastplatz
TTITLE1=JayHayston - Du bist das "A" und "O" für mich
TTITLE2=Gudrun Lange and Kactus - Da wird überhaupt nichts draus
TTITLE3=Anne Karin - Er war da, als ich dich brauchte
TTITLE4=Peter Sebastian - Freiheit ist nicht nur ein Wort
TTITLE5=Ulla Norden - Liebe, na was sonst
TTITLE6=Mark Bender - Ehrlichkeit
TTITLE7=Sasja Velt - Ich kann nicht lachen, wenn du traurig bist
TTITLE8=Hartmut Schulze-Gerlach - Wir müssen mal wieder zusammensitzen
TTITLE9=Bianca Graf - Liebe wie im Rosengarten
TTITLE10=Linda Feller - Männer wollen nur das Eine
TTITLE11=Roxy Rose - Frankfurt International Airport
TTITLE12=Dirk Busch - Mir gehts gut
TTITLE13=Sundance - Radiomann
TTITLE14=Hank Forster - Freundschaft
TTITLE15=Die Inselfeger - Country Roads
EXTD=YEAR: 2003
EXTT0=
EXTT1=
EXTT2=
EXTT3=
EXTT4=
EXTT5=
EXTT6=
EXTT7=
EXTT8=
EXTT9=
EXTT10=
EXTT11=
EXTT12=
EXTT13=
EXTT14=
EXTT15=
PLAYORDER=
